<?xml version="1.0" encoding="utf-8"?>
<!-- Generator: Adobe Illustrator 14.0.0, SVG Export Plug-In . SVG Version: 6.00 Build 43363)  -->
<!DOCTYPE svg PUBLIC "-//W3C//DTD SVG 1.1//EN" "http://www.w3.org/Graphics/SVG/1.1/DTD/svg11.dtd">
<svg version="1.1" id="Layer_1" xmlns="http://www.w3.org/2000/svg" xmlns:xlink="http://www.w3.org/1999/xlink" x="0px" y="0px"
	 width="528px" height="159px" viewBox="0 0 528 159" enable-background="new 0 0 528 159" xml:space="preserve">
<g>
	<path fill="#A27604" d="M188.121,118.904c-0.528,1.165-0.952,2.585-1.243,3.748c-0.16,0.207-0.795,0.207-0.848-0.052
		c0.318-2.43-0.581-3.567-3.017-3.567c-2.01,0-4.258,0.879-6.242,3.077c-1.401,1.576-2.777,4.367-2.777,7.288
		c0,3.905,1.984,5.508,4.602,5.508c2.487,0,4.102-1.448,5.661-3.62c0.263-0.156,0.634-0.104,0.794,0.129
		c-0.371,1.138-1.166,2.767-1.799,3.877c-0.557,0.053-1.244,0.232-2.063,0.361c-0.794,0.129-1.641,0.258-2.646,0.258
		c-4.549,0-7.803-2.301-7.777-6.771c0.027-3.309,1.693-6.229,3.809-8.065c1.932-1.679,4.921-3.049,8.704-3.049
		C185.503,118.025,187.381,118.671,188.121,118.904z"/>
	<path fill="#A27604" d="M189.334,126.685c1.535-1.37,2.831-1.731,4.021-1.731c2.354,0,3.28,1.576,3.253,3.515
		c-0.027,1.604-0.819,3.956-2.592,5.611c-1.534,1.472-3.016,1.782-4.18,1.782c-2.222,0-3.333-1.499-3.28-3.385
		C186.611,130.588,187.721,128.158,189.334,126.685z M191.953,133.404c0.953-1.343,2.222-4.445,2.222-6.125
		c0-0.698-0.105-1.396-0.847-1.396c-0.476,0-1.031,0.284-1.719,1.137c-1.243,1.577-2.619,4.653-2.619,6.565
		c0,0.775,0.344,1.346,0.953,1.346C190.578,134.931,191.16,134.518,191.953,133.404z"/>
	<path fill="#A27604" d="M201.263,127.485c0.159-0.412,0.131-0.672-0.08-0.672c-0.528,0-1.72,1.008-2.433,1.731
		c-0.265-0.052-0.477-0.207-0.423-0.516c0.847-1.19,3.094-3.077,5.025-3.077c0.53,0,1.005,0.467,1.005,0.931
		c0,0.104-0.053,0.414-0.158,0.698l-2.726,6.644c-0.185,0.466-0.079,0.724,0.185,0.724c0.318,0,1.005-0.544,1.93-1.396
		c2.196-2.068,3.941-5.402,4.974-7.496c0.21-0.076,0.476-0.104,0.794-0.104c0.582,0,1.19,0.258,1.322,0.518
		c-0.661,1.68-2.063,5.065-3.121,7.883c-0.16,0.415-0.132,0.699,0.132,0.699c0.476,0,1.852-1.138,2.54-1.887
		c0.264,0,0.477,0.103,0.477,0.465c-0.741,1.267-3.279,3.231-5.131,3.231c-0.582,0-1.032-0.517-0.795-1.138l1.64-4.162h-0.052
		c-1.667,2.173-4.762,5.3-6.508,5.3c-0.74,0-1.27-0.62-1.27-1.241c0-0.362,0.132-0.801,0.318-1.266L201.263,127.485z"/>
	<path fill="#A27604" d="M223.877,126.4c0,0.49-0.211,1.368-0.476,2.041c-0.477,1.267-1.746,4.084-2.17,5.117
		c-0.132,0.311-0.158,0.519,0.053,0.519c0.424,0,1.693-0.932,2.434-1.759c0.317-0.052,0.476,0.155,0.476,0.465
		c-0.9,1.448-3.016,3.077-5.079,3.077c-0.476,0-0.9-0.466-0.9-0.827c0-0.31,0.107-0.673,0.477-1.525
		c0.688-1.552,1.586-3.697,2.222-5.221c0.211-0.519,0.424-1.138,0.424-1.552c0-0.233-0.054-0.438-0.372-0.438
		c-0.449,0-1.585,0.802-2.804,2.3c-1.429,1.811-2.724,4.188-4.02,6.851c-0.16,0.311-0.477,0.414-0.899,0.414
		c-0.476,0-1.403-0.155-1.165-0.879c0.106-0.336,2.54-6.747,2.804-7.471c0.158-0.413,0.21-0.775-0.106-0.775
		c-0.528,0-1.534,0.672-2.274,1.344c-0.265,0-0.423-0.206-0.423-0.412c0.846-1.318,2.751-2.715,4.55-2.715
		c0.952,0,1.031,0.774,0.793,1.344l-1.614,4.007h0.105c1.667-2.3,4.101-5.35,6.375-5.35
		C223.454,124.953,223.877,125.677,223.877,126.4z"/>
	<path fill="#A27604" d="M224.563,134.18c0-0.569,0.423-1.239,1.005-1.239c0.21,0,0.397,0.154,0.583,0.36
		c0.688,0.724,1.269,1.164,2.01,1.164c0.556,0,1.059-0.388,1.059-0.932c0-0.852-0.821-1.758-1.323-2.378
		c-0.74-0.931-1.112-1.81-1.112-2.454c0-1.085,0.582-1.965,1.535-2.767c0.74-0.62,1.693-0.982,2.382-0.982
		c1.215,0,2.116,0.879,2.116,1.783c0,0.698-0.583,1.085-0.847,1.085c-0.239,0-0.424-0.103-0.582-0.31
		c-0.741-0.827-1.166-1.111-1.853-1.111c-0.581,0-0.898,0.439-0.898,0.803c0,0.852,0.872,1.602,1.349,2.222
		c0.767,1.009,1.165,1.731,1.138,2.741c-0.026,0.878-0.477,1.859-1.481,2.661c-0.795,0.647-1.853,1.034-2.963,1.034
		C225.567,135.861,224.563,135.087,224.563,134.18z"/>
	<path fill="#A27604" d="M233.183,133.043c0-1.939,1.244-4.834,3.756-6.694c1.455-1.062,2.699-1.396,3.703-1.396
		c1.269,0,2.116,0.931,2.116,1.783c0,2.326-3.598,3.593-6.534,4.368c-0.131,0.363-0.238,0.958-0.238,1.68
		c0,0.957,0.423,1.474,1.166,1.474c0.951,0,1.903-0.541,3.122-1.627c0.263,0,0.476,0.259,0.423,0.517
		c-1.429,1.94-3.281,2.715-5.026,2.715S233.183,134.465,233.183,133.043z M238.342,126.917c-0.979,1.009-1.614,2.378-1.904,3.31
		c1.349-0.466,2.169-0.904,3.015-1.759c0.662-0.646,0.98-1.526,0.98-1.938c0-0.337-0.159-0.646-0.503-0.646
		C239.559,125.883,239.004,126.194,238.342,126.917z"/>
	<path fill="#A27604" d="M245.827,133.38c-0.238,0.672-0.264,1.032,0.105,1.032c0.582,0,1.984-1.446,2.883-2.481
		c0.318,0,0.53,0.156,0.478,0.466c-0.742,1.396-2.303,3.464-4.974,3.464c-1.058,0-1.375-0.518-1.375-0.931
		c0-0.414,0.105-0.879,0.476-1.913l4.366-12.484c0.476-1.344,0.371-1.604-0.106-1.862l-0.609-0.309
		c-0.105-0.156-0.105-0.361,0.052-0.519c0.714-0.258,2.937-0.722,4.234-0.827c0.054,0,0.159,0.157,0.159,0.207
		c-0.371,1.033-0.688,1.86-1.402,3.929L245.827,133.38z"/>
	<path fill="#A27604" d="M252.703,133.38c-0.238,0.672-0.265,1.032,0.105,1.032c0.582,0,1.985-1.446,2.883-2.481
		c0.318,0,0.529,0.156,0.478,0.466c-0.743,1.396-2.303,3.464-4.974,3.464c-1.058,0-1.375-0.518-1.375-0.931
		c0-0.414,0.105-0.879,0.476-1.913l4.366-12.484c0.476-1.344,0.371-1.604-0.107-1.862l-0.608-0.309
		c-0.105-0.156-0.105-0.361,0.053-0.519c0.714-0.258,2.937-0.722,4.233-0.827c0.054,0,0.159,0.157,0.159,0.207
		c-0.371,1.033-0.688,1.86-1.402,3.929L252.703,133.38z"/>
	<path fill="#A27604" d="M259.684,126.685c1.535-1.37,2.831-1.731,4.021-1.731c2.354,0,3.28,1.576,3.254,3.515
		c-0.025,1.604-0.82,3.956-2.592,5.611c-1.534,1.472-3.014,1.782-4.18,1.782c-2.222,0-3.333-1.499-3.279-3.385
		C256.96,130.588,258.071,128.158,259.684,126.685z M262.302,133.404c0.953-1.343,2.224-4.445,2.224-6.125
		c0-0.698-0.106-1.396-0.847-1.396c-0.477,0-1.031,0.284-1.719,1.137c-1.243,1.577-2.619,4.653-2.619,6.565
		c0,0.775,0.344,1.346,0.952,1.346C260.927,134.931,261.51,134.518,262.302,133.404z"/>
	<path fill="#A27604" d="M273.199,127.641l-0.926,2.662h0.158c0.795-1.421,1.693-2.895,2.356-3.694
		c0.846-1.034,1.561-1.655,2.354-1.655c0.848,0,1.217,0.724,1.217,1.447c0,0.802-0.609,2.067-1.43,2.067
		c-0.316,0-0.424-0.284-0.527-0.75c-0.106-0.516-0.266-0.776-0.53-0.776c-0.316,0-0.926,0.57-1.798,1.992
		c-0.979,1.551-2.089,4.059-3.175,6.514c-0.132,0.311-0.477,0.414-0.898,0.414c-0.529,0-1.455-0.155-1.217-0.879
		c0.58-1.679,1.904-5.273,2.645-7.626c0.132-0.415,0.107-0.672-0.158-0.672c-0.582,0-1.429,0.724-2.063,1.447
		c-0.266,0-0.476-0.207-0.423-0.518c0.688-1.163,2.01-2.662,3.648-2.662C273.861,124.953,273.621,126.452,273.199,127.641z"/>
	<path fill="#A27604" d="M277.139,134.18c0-0.569,0.424-1.239,1.005-1.239c0.213,0,0.397,0.154,0.582,0.36
		c0.688,0.724,1.269,1.164,2.011,1.164c0.556,0,1.059-0.388,1.059-0.932c0-0.852-0.821-1.758-1.322-2.378
		c-0.741-0.931-1.112-1.81-1.112-2.454c0-1.085,0.581-1.965,1.535-2.767c0.74-0.62,1.693-0.982,2.381-0.982
		c1.216,0,2.116,0.879,2.116,1.783c0,0.698-0.582,1.085-0.847,1.085c-0.239,0-0.425-0.103-0.582-0.31
		c-0.741-0.827-1.165-1.111-1.853-1.111c-0.582,0-0.898,0.439-0.898,0.803c0,0.852,0.873,1.602,1.349,2.222
		c0.768,1.009,1.165,1.731,1.138,2.741c-0.025,0.878-0.477,1.859-1.481,2.661c-0.794,0.647-1.852,1.034-2.963,1.034
		C278.144,135.861,277.139,135.087,277.139,134.18z"/>
	<path fill="#A27604" d="M297.929,129.115c-0.795,0-0.795,0.024-1.245,0.723l-1.824,2.868c-0.662,1.062-0.848,1.422-0.848,1.603
		c0,0.183,0.186,0.286,0.663,0.362l0.847,0.155c0.211,0.156,0.158,0.596-0.08,0.75c-1.11-0.052-1.956-0.077-3.042-0.077
		c-0.979,0-1.878,0.025-2.751,0.077c-0.238-0.154-0.238-0.594-0.027-0.75l0.663-0.103c1.059-0.156,1.509-0.467,2.46-1.783
		c0.344-0.467,2.857-3.853,3.835-5.249l4.233-5.944c1.005-1.396,1.562-2.301,1.639-2.767c0.952-0.052,1.932-0.724,2.381-0.956
		c0.212,0,0.425,0.104,0.425,0.284c0,0.413-0.054,1.499-0.132,3.722c-0.107,3.309-0.187,6.644-0.24,9.952
		c-0.053,2.354,0.054,2.612,1.375,2.767l0.637,0.077c0.158,0.181,0.105,0.62-0.106,0.75c-1.111-0.052-2.169-0.077-3.438-0.077
		c-1.35,0-2.435,0.025-3.254,0.077c-0.318-0.129-0.291-0.594-0.08-0.75l0.715-0.103c1.11-0.156,1.242-0.363,1.295-1.578l0.16-3.438
		c0.026-0.543-0.106-0.594-0.794-0.594L297.929,129.115L297.929,129.115z M301.552,127.951c0.528,0,0.609-0.051,0.635-0.62
		l0.238-4.368c0.025-0.569,0-0.957,0.025-1.577h-0.053c-0.185,0.31-0.556,0.852-1.27,1.887l-2.883,4.213
		c-0.264,0.389-0.211,0.466,0.477,0.466H301.552L301.552,127.951z"/>
	<path fill="#A27604" d="M313.851,126.608l-2.382,6.695c-0.157,0.412-0.105,0.618,0.16,0.618c0.424,0,1.956-1.138,2.91-2.172
		c0.317,0.052,0.476,0.207,0.423,0.569c-1.164,1.706-3.756,3.542-5.449,3.542c-0.527,0-0.95-0.466-0.95-0.879
		c0-0.362,0.077-0.725,0.316-1.423l2.435-6.951h-2.011c-0.16-0.233,0-0.672,0.264-0.827l2.223-0.415l1.693-2.507
		c0.158-0.103,0.37-0.129,0.635-0.129c0.37,0,0.74,0.129,0.847,0.337l-0.741,2.405h2.646c0.316,0.309,0.105,0.981-0.212,1.136
		H313.851L313.851,126.608z"/>
	<path fill="#A27604" d="M325.354,135.499c-1.27,0-2.274,0.025-3.412,0.077c-0.212-0.129-0.212-0.646,0.053-0.75l0.74-0.103
		c1.191-0.156,1.401-0.439,2.223-2.948l3.123-9.614c0.739-2.25,0.739-2.664-0.61-2.922l-0.688-0.129
		c-0.211-0.154-0.159-0.646,0.16-0.749c1.269,0.051,2.38,0.077,3.57,0.077s2.195-0.026,3.572-0.077
		c0.21,0.155,0.21,0.646-0.056,0.749l-0.739,0.104c-1.297,0.181-1.481,0.439-2.274,2.946l-2.936,9.099
		c-0.425,1.293-0.61,2.093-0.397,2.585c0.211,0.492,0.768,0.646,2.406,0.646c2.672,0,3.703-0.155,5.581-2.817
		c0.318-0.156,0.688-0.104,0.848,0.155c-0.37,1.085-1.322,3.05-1.878,3.747c-0.873-0.025-1.933-0.052-3.017-0.052
		c-1.083-0.025-2.194-0.025-3.199-0.025H325.354z"/>
	<path fill="#A27604" d="M347.149,124.539c0.104-0.052,0.315-0.104,0.527-0.104c0.503,0,1.242,0.156,1.481,0.62
		c-0.74,1.68-2.434,5.944-3.412,8.635c-0.133,0.335-0.026,0.465,0.132,0.465c0.396,0,1.481-0.596,2.646-1.679
		c0.21,0,0.423,0.154,0.423,0.489c-1.164,1.446-3.229,2.896-4.921,2.896c-0.634,0-0.873-0.517-0.873-0.827
		c0-0.259,0.055-0.543,0.264-1.061l0.953-2.456h-0.08c-1.852,2.456-4.496,4.344-6.029,4.344c-0.848,0-1.43-0.724-1.43-1.551
		c0-1.007,1.06-3.62,3.095-5.867c1.19-1.293,2.406-2.094,3.307-2.559c0.794-0.415,1.429-0.57,2.063-0.57
		c0.212,0,0.423,0.104,0.608,0.182c0.132,0.077,0.397,0.285,0.556,0.49L347.149,124.539z M342.757,127.512
		c-1.482,1.578-2.858,4.498-2.911,6.204c0,0.283,0.107,0.518,0.317,0.518c0.424,0,1.561-0.904,2.698-2.068
		c1.349-1.345,2.539-3.67,2.911-4.86c-0.212-0.618-0.636-0.903-1.165-0.903C344.026,126.4,343.604,126.634,342.757,127.512z"/>
	<path fill="#A27604" d="M353.996,131.802c-0.45,1.164-0.582,1.655-0.582,1.966c0,0.257,0.16,0.464,0.424,0.464
		c0.714,0,1.904-1.214,2.752-2.249c1.48-1.81,2.142-3.799,2.486-5.195c0.317-1.317,0.979-1.783,1.746-1.783
		c0.713,0,1.163,0.415,1.163,0.931c0,0.569-0.29,1.112-0.898,2.249c-0.819,1.525-1.428,3.515-1.428,4.859
		c0,0.673,0.21,1.137,0.793,1.137c0.741,0,1.984-0.827,2.884-2.274c0.82-1.317,1.243-2.946,1.243-3.928
		c0-0.621-0.054-1.188-0.211-1.783c0.106-0.725,0.635-1.241,1.375-1.241c1.112,0.104,1.401,0.983,1.376,1.731
		c-0.054,1.604-0.952,3.8-3.069,6.1c-1.984,2.146-4.126,3.077-5.236,3.077c-0.689,0-1.535-0.672-1.535-1.551
		c0-0.595,0.264-1.422,0.476-2.197l-0.053-0.052c-0.449,0.595-1.11,1.242-1.587,1.706c-1.084,1.033-2.645,2.094-3.915,2.094
		c-0.952,0-1.481-0.931-1.481-1.447c0-0.491,0.159-1.11,0.528-2.094l1.799-4.652c0.265-0.672,0.239-0.931-0.053-0.931
		c-0.527,0-1.641,0.931-2.328,1.654c-0.264,0-0.476-0.206-0.476-0.413c0.792-1.241,2.751-3.024,4.708-3.024
		c0.635,0,1.11,0.62,1.11,1.034c0,0.309-0.079,0.801-0.264,1.265L353.996,131.802z"/>
</g>
<g>
	<polygon fill="#A27604" points="20.783,28.914 145.697,28.914 154.679,20.923 11.802,20.923 	"/>
	<rect x="7.556" y="17.141" fill="#A27604" width="151.368" height="2.229"/>
</g>
<g>
	<polygon fill="#A27604" points="145.686,131.504 20.774,131.504 11.79,139.493 154.669,139.493 	"/>
	<rect x="7.546" y="141.049" fill="#A27604" width="151.368" height="2.229"/>
</g>
<linearGradient id="SVGID_1_" gradientUnits="userSpaceOnUse" x1="-424.5842" y1="260.1719" x2="-424.5842" y2="247.0007" gradientTransform="matrix(1 0 0 -1 507.6001 292.1992)">
	<stop  offset="0.0032" style="stop-color:#C7A562"/>
	<stop  offset="1" style="stop-color:#A27604;stop-opacity:0"/>
</linearGradient>
<rect x="20.938" y="31.946" fill="url(#SVGID_1_)" width="124.156" height="13.2"/>
<linearGradient id="SVGID_2_" gradientUnits="userSpaceOnUse" x1="-424.5842" y1="163.2344" x2="-424.5842" y2="176.1972" gradientTransform="matrix(1 0 0 -1 507.6001 292.1992)">
	<stop  offset="0.0032" style="stop-color:#C7A562"/>
	<stop  offset="1" style="stop-color:#A27604;stop-opacity:0"/>
</linearGradient>
<rect x="20.938" y="115.993" fill="url(#SVGID_2_)" width="124.156" height="13.2"/>
<g>
	<path fill="#002B5F" d="M178.837,39.603c-1.579,0-1.672,0.062-1.672,0.897v4.55c0,3.28,0.278,3.343,1.733,3.529l0.929,0.124
		c0.216,0.217,0.186,0.773-0.063,0.897c-1.61-0.061-3.002-0.092-4.364-0.092c-1.361,0-2.755,0.031-3.931,0.092
		c-0.248-0.124-0.279-0.681-0.063-0.897l0.434-0.063c1.454-0.216,1.733-0.309,1.733-3.59V33.538c0-3.282-0.279-3.375-1.733-3.56
		l-0.681-0.092c-0.216-0.155-0.186-0.775,0.063-0.898c1.362,0.062,2.818,0.093,4.179,0.093s2.754-0.031,3.963-0.093
		c0.247,0.123,0.278,0.743,0.061,0.898l-0.526,0.092c-1.455,0.248-1.732,0.278-1.732,3.56v3.744c0,0.867,0.092,0.928,1.671,0.928
		h7.242c1.579,0,1.673-0.061,1.673-0.928v-3.744c0-3.282-0.278-3.375-1.734-3.56l-0.681-0.092c-0.216-0.155-0.185-0.775,0.063-0.898
		c1.424,0.062,2.817,0.093,4.18,0.093c1.36,0,2.754-0.031,3.993-0.093c0.247,0.123,0.278,0.743,0.062,0.898l-0.557,0.092
		c-1.456,0.248-1.734,0.278-1.734,3.56v11.513c0,3.28,0.278,3.374,1.734,3.56l0.68,0.092c0.217,0.217,0.186,0.773-0.063,0.897
		c-1.361-0.061-2.755-0.092-4.115-0.092c-1.424,0-2.818,0.031-4.18,0.092c-0.247-0.124-0.278-0.681-0.063-0.897l0.681-0.092
		c1.456-0.186,1.734-0.278,1.734-3.56V40.5c0-0.836-0.094-0.897-1.673-0.897H178.837z"/>
	<path fill="#002B5F" d="M201.466,41.925c-0.805,0-0.773,0-1.053,0.836l-1.269,3.713c-0.619,1.826-0.494,1.888,0.651,2.073
		l0.897,0.155c0.216,0.217,0.186,0.773-0.063,0.897c-0.99-0.061-2.012-0.061-3.281-0.092c-1.021,0-1.98,0.031-3.064,0.092
		c-0.215-0.155-0.247-0.619-0.029-0.897l0.928-0.155c0.898-0.155,1.239-0.402,1.703-1.423c0.371-0.804,0.867-2.105,1.517-3.776
		l4.24-11.019c0.372-0.99,0.681-1.734,0.587-2.26c1.083-0.216,2.104-1.486,2.167-1.486c0.248,0,0.403,0.092,0.526,0.248
		c0.495,1.394,0.898,2.848,1.394,4.241l4.457,12.969c0.71,2.074,0.866,2.26,2.445,2.569l0.464,0.092
		c0.248,0.217,0.248,0.743,0.031,0.897c-1.27-0.061-2.415-0.092-4.024-0.092c-1.331,0-2.692,0.062-3.776,0.092
		c-0.247-0.155-0.278-0.712-0.092-0.897l0.68-0.092c1.115-0.155,1.269-0.341,0.805-1.64l-1.455-4.209
		c-0.279-0.836-0.402-0.836-1.269-0.836h-4.119V41.925z M205.179,40.532c0.867,0,0.991-0.062,0.744-0.805l-1.3-3.713
		c-0.558-1.642-0.712-2.229-0.867-2.446h-0.061c-0.125,0.217-0.403,0.99-0.93,2.446l-1.3,3.621c-0.31,0.897-0.249,0.897,0.495,0.897
		H205.179z"/>
	<path fill="#002B5F" d="M235.145,44.246c0,0.928,0,4.735,0.092,5.447c-0.249,0.341-0.681,0.465-1.053,0.434
		c-0.495-0.65-1.393-1.702-3.621-4.239l-7.242-8.264c-1.981-2.29-3.002-3.435-3.528-3.899c-0.093,0-0.093,0.341-0.093,1.981v6.036
		c0,2.321,0.03,5.169,0.557,6.097c0.278,0.464,0.805,0.681,1.578,0.774l0.681,0.092c0.278,0.217,0.249,0.804-0.063,0.897
		c-1.145-0.061-2.351-0.092-3.527-0.092c-1.3,0-2.136,0.031-3.22,0.092c-0.248-0.154-0.309-0.68-0.062-0.897l0.681-0.155
		c0.588-0.124,1.146-0.216,1.361-0.711c0.403-0.959,0.403-3.652,0.403-6.097v-7.335c0-2.414,0.03-2.91-1.023-3.807
		c-0.34-0.278-1.207-0.526-1.639-0.619l-0.465-0.092c-0.216-0.186-0.186-0.804,0.124-0.897c1.176,0.123,2.879,0.092,3.652,0.092
		c0.65,0,1.392-0.031,2.134-0.092c0.527,1.33,3.9,5.23,4.983,6.406l3.095,3.343c1.3,1.423,4.179,4.705,4.488,4.891
		c0.092-0.092,0.092-0.248,0.092-0.743v-6.038c0-2.321-0.03-5.169-0.588-6.097c-0.278-0.464-0.773-0.681-1.548-0.773l-0.71-0.092
		c-0.28-0.217-0.249-0.804,0.061-0.898c1.208,0.062,2.353,0.093,3.56,0.093c1.331,0,2.135-0.031,3.249-0.093
		c0.248,0.155,0.31,0.681,0.063,0.898l-0.712,0.155c-0.588,0.123-1.114,0.217-1.331,0.712c-0.433,0.96-0.433,3.652-0.433,6.097
		v7.396H235.145z"/>
	<path fill="#002B5F" d="M245.859,36.972c0,0.836,0.03,1.393,0.526,1.393c0.587,0,1.3-0.711,2.321-1.826l3.157-3.404
		c0.401-0.403,1.3-1.423,1.67-1.919c0.558-0.711,0.589-0.96,0.217-1.053l-0.959-0.278c-0.25-0.217-0.186-0.65,0.062-0.898
		c1.301,0.062,2.32,0.093,3.467,0.093c1.331,0,2.29-0.063,3.404-0.093c0.341,0.093,0.401,0.743,0.092,0.898
		c-2.878,0.403-3.714,1.145-5.848,3.218c-1.331,1.332-2.571,2.6-3.777,3.808c-0.372,0.371-0.434,0.556-0.094,1.021
		c2.445,3.219,5.386,6.902,7.614,9.502c0.65,0.774,1.362,1.053,2.29,1.176l0.744,0.092c0.216,0.155,0.186,0.804-0.063,0.897
		c-1.083-0.061-2.321-0.092-3.961-0.092c-1.517,0-2.91,0.031-4.272,0.092c-0.34-0.124-0.34-0.742-0.062-0.897l0.835-0.124
		c0.495-0.062,0.558-0.403,0.217-0.836c-1.3-1.609-4.983-6.623-6.128-7.799c-0.216-0.216-0.464-0.464-0.743-0.464
		c-0.774,0-0.711,0.742-0.711,1.64v3.931c0,3.28,0.278,3.374,1.731,3.559l0.775,0.093c0.216,0.155,0.186,0.773-0.063,0.897
		c-1.455-0.062-2.848-0.092-4.209-0.092c-1.362,0-2.816,0.031-3.932,0.092c-0.247-0.124-0.278-0.742-0.061-0.897l0.433-0.063
		c1.454-0.216,1.733-0.309,1.733-3.59v-11.51c0-3.282-0.279-3.343-1.733-3.56l-0.587-0.092c-0.217-0.217-0.186-0.775,0.062-0.898
		c1.27,0.062,2.662,0.093,4.086,0.093c1.361,0,2.754-0.031,3.962-0.093c0.247,0.123,0.278,0.743,0.062,0.898l-0.527,0.092
		c-1.454,0.248-1.732,0.278-1.732,3.56L245.859,36.972L245.859,36.972z"/>
	<path fill="#002B5F" d="M267.033,45.051c0,3.28,0.277,3.374,1.731,3.56l0.681,0.092c0.217,0.217,0.186,0.773-0.061,0.897
		c-1.363-0.061-2.756-0.092-4.117-0.092c-1.362,0-2.816,0.031-4.178,0.092c-0.25-0.124-0.278-0.681-0.063-0.897l0.68-0.092
		c1.454-0.186,1.733-0.278,1.733-3.56V33.538c0-3.282-0.279-3.375-1.733-3.56l-0.68-0.092c-0.216-0.217-0.187-0.775,0.063-0.898
		c1.362,0.062,2.754,0.093,4.178,0.093c1.361,0,2.754-0.031,4.117-0.093c0.246,0.123,0.277,0.681,0.061,0.898l-0.681,0.092
		c-1.454,0.185-1.731,0.278-1.731,3.56V45.051z"/>
	<path fill="#002B5F" d="M291.423,44.246c0,0.928,0,4.735,0.093,5.447c-0.248,0.341-0.682,0.465-1.053,0.434
		c-0.494-0.65-1.394-1.702-3.62-4.239l-7.242-8.264c-1.981-2.29-3.003-3.435-3.528-3.899c-0.094,0-0.094,0.341-0.094,1.981v6.036
		c0,2.321,0.03,5.169,0.558,6.097c0.278,0.464,0.804,0.681,1.578,0.774l0.682,0.092c0.278,0.217,0.249,0.804-0.063,0.897
		c-1.146-0.061-2.352-0.092-3.528-0.092c-1.301,0-2.135,0.031-3.219,0.092c-0.248-0.154-0.31-0.68-0.063-0.897l0.682-0.155
		c0.587-0.124,1.145-0.216,1.36-0.711c0.402-0.959,0.402-3.652,0.402-6.097v-7.335c0-2.414,0.03-2.91-1.022-3.807
		c-0.34-0.278-1.207-0.526-1.639-0.619l-0.465-0.092c-0.217-0.186-0.187-0.804,0.123-0.897c1.176,0.123,2.879,0.092,3.652,0.092
		c0.649,0,1.393-0.031,2.135-0.092c0.527,1.33,3.899,5.23,4.983,6.406l3.096,3.343c1.3,1.423,4.179,4.705,4.488,4.891
		c0.092-0.092,0.092-0.248,0.092-0.743v-6.038c0-2.321-0.03-5.169-0.589-6.097c-0.276-0.464-0.773-0.681-1.547-0.773l-0.711-0.092
		c-0.279-0.217-0.249-0.804,0.062-0.898c1.207,0.062,2.353,0.093,3.559,0.093c1.332,0,2.136-0.031,3.251-0.093
		c0.248,0.155,0.31,0.681,0.063,0.898l-0.714,0.155c-0.589,0.123-1.112,0.217-1.33,0.712c-0.434,0.96-0.434,3.652-0.434,6.097
		L291.423,44.246L291.423,44.246z"/>
	<path fill="#002B5F" d="M308.312,48.703c-0.556-0.65-0.96-2.785-0.928-4.705c0.185-0.311,0.71-0.341,0.958-0.125
		c0.559,1.579,2.23,4.891,5.262,4.891c2.353,0,3.685-1.423,3.685-3.313c0-1.765-0.836-3.188-3.158-4.488l-1.33-0.744
		c-2.322-1.3-4.363-3.188-4.363-5.973c0-3.064,2.29-5.664,6.808-5.664c1.61,0,2.786,0.371,4.24,0.65
		c0.34,0.681,0.649,2.723,0.649,4.178c-0.155,0.278-0.71,0.31-0.989,0.092c-0.466-1.609-1.547-3.684-4.18-3.684
		c-2.476,0-3.498,1.61-3.498,3.251c0,1.3,0.898,2.693,2.941,3.776l1.918,1.021c2.014,1.053,4.241,2.971,4.241,6.097
		c0,3.529-2.691,6.036-7.18,6.036C310.54,50.003,308.931,49.073,308.312,48.703z"/>
	<path fill="#002B5F" d="M328.278,41.925c-0.804,0-0.773,0-1.053,0.836l-1.268,3.713c-0.619,1.826-0.496,1.888,0.648,2.073
		l0.898,0.155c0.217,0.217,0.187,0.773-0.063,0.897c-0.99-0.061-2.011-0.061-3.28-0.092c-1.021,0-1.981,0.031-3.063,0.092
		c-0.218-0.155-0.247-0.619-0.029-0.897l0.928-0.155c0.897-0.155,1.237-0.402,1.702-1.423c0.371-0.804,0.867-2.105,1.517-3.776
		l4.241-11.019c0.371-0.99,0.68-1.734,0.585-2.26c1.085-0.216,2.105-1.486,2.169-1.486c0.247,0,0.4,0.092,0.526,0.248
		c0.494,1.394,0.898,2.848,1.393,4.241l4.459,12.969c0.71,2.074,0.865,2.26,2.444,2.569l0.465,0.092
		c0.248,0.217,0.248,0.743,0.029,0.897c-1.27-0.061-2.414-0.092-4.023-0.092c-1.33,0-2.692,0.062-3.775,0.092
		c-0.248-0.155-0.279-0.712-0.092-0.897l0.679-0.092c1.115-0.155,1.269-0.341,0.805-1.64l-1.455-4.209
		c-0.279-0.836-0.4-0.836-1.269-0.836h-4.118V41.925z M331.992,40.532c0.865,0,0.989-0.062,0.743-0.805l-1.3-3.713
		c-0.559-1.642-0.713-2.229-0.868-2.446h-0.062c-0.123,0.217-0.402,0.99-0.93,2.446l-1.3,3.621c-0.31,0.897-0.248,0.897,0.496,0.897
		H331.992z"/>
	<path fill="#002B5F" d="M361.956,44.246c0,0.928,0,4.735,0.093,5.447c-0.248,0.341-0.682,0.465-1.053,0.434
		c-0.494-0.65-1.394-1.702-3.62-4.239l-7.242-8.264c-1.982-2.29-3.004-3.435-3.528-3.899c-0.095,0-0.095,0.341-0.095,1.981v6.036
		c0,2.321,0.031,5.169,0.559,6.097c0.277,0.464,0.803,0.681,1.577,0.774l0.682,0.092c0.279,0.217,0.25,0.804-0.063,0.897
		c-1.146-0.061-2.352-0.092-3.528-0.092c-1.301,0-2.135,0.031-3.218,0.092c-0.248-0.154-0.31-0.68-0.063-0.897l0.681-0.155
		c0.589-0.124,1.146-0.216,1.362-0.711c0.4-0.959,0.4-3.652,0.4-6.097v-7.335c0-2.414,0.032-2.91-1.021-3.807
		c-0.341-0.278-1.207-0.526-1.641-0.619l-0.465-0.092c-0.216-0.186-0.185-0.804,0.125-0.897c1.175,0.123,2.879,0.092,3.652,0.092
		c0.648,0,1.393-0.031,2.135-0.092c0.527,1.33,3.899,5.23,4.981,6.406l3.096,3.343c1.301,1.423,4.18,4.705,4.487,4.891
		c0.093-0.092,0.093-0.248,0.093-0.743v-6.038c0-2.321-0.029-5.169-0.588-6.097c-0.278-0.464-0.773-0.681-1.547-0.773l-0.711-0.092
		c-0.279-0.217-0.249-0.804,0.062-0.898c1.207,0.062,2.353,0.093,3.559,0.093c1.332,0,2.136-0.031,3.251-0.093
		c0.248,0.155,0.309,0.681,0.063,0.898l-0.712,0.154c-0.588,0.123-1.112,0.217-1.329,0.712c-0.435,0.96-0.435,3.652-0.435,6.097
		V44.246z"/>
	<path fill="#002B5F" d="M369.08,33.722c0-2.971-0.032-3.405-1.486-3.529l-0.65-0.062c-0.216-0.155-0.216-0.711,0.03-0.867
		c2.229-0.185,4.705-0.278,7.739-0.278c2.938,0,5.044,0.248,7.302,1.053c3.715,1.362,6.348,4.643,6.348,9.254
		c0,3.435-1.703,6.964-5.54,8.915c-2.198,1.114-4.86,1.486-7.678,1.486c-1.889,0-3.343-0.186-4.487-0.186
		c-1.175,0-2.568,0.031-3.93,0.092c-0.25-0.124-0.279-0.681-0.063-0.897l0.682-0.092c1.454-0.186,1.733-0.278,1.733-3.56
		L369.08,33.722L369.08,33.722z M372.669,43.843c0,3.002,0.218,4.611,3.499,4.611c5.509,0,7.983-3.899,7.983-9.131
		c0-6.128-3.558-9.099-8.728-9.099c-1.3,0-2.289,0.248-2.506,0.433c-0.218,0.186-0.249,0.836-0.249,2.292V43.843z"/>
	<path fill="#002B5F" d="M416.781,48.703c0.31,0.124,0.277,0.773-0.063,0.897c-1.332-0.061-2.537-0.092-3.777-0.092
		c-1.454,0-2.784,0.031-4.146,0.092c-0.248-0.124-0.372-0.711-0.063-0.897l0.836-0.155c1.237-0.216,1.33-0.433,1.33-2.538V33.351
		h-0.061c-0.835,1.702-1.27,2.631-1.857,3.869l-2.662,5.447c-1.05,2.167-2.599,5.602-3.155,7.057c-0.125,0.124-0.589,0.124-0.806,0
		c-0.526-1.671-1.856-4.705-2.567-6.252l-2.757-5.942c-0.586-1.3-1.422-3.25-1.794-4.178h-0.063
		c-0.062,1.516-0.123,3.931-0.185,5.231c-0.063,1.888-0.123,4.643-0.123,7.181c0,2.042,0.028,2.506,1.36,2.754l1.021,0.186
		c0.217,0.186,0.217,0.773-0.029,0.897c-1.146-0.061-2.105-0.092-3.251-0.092c-0.99,0-2.104,0.031-3.311,0.092
		c-0.279-0.155-0.279-0.742-0.093-0.897l0.524-0.063c1.488-0.185,1.704-0.65,1.921-2.537c0.215-1.949,0.31-3.962,0.464-7.181
		c0.122-2.104,0.31-4.674,0.31-6.562c0-1.456-0.464-2.073-1.672-2.29l-1.053-0.186c-0.185-0.216-0.155-0.804,0.124-0.897
		c0.929,0.062,1.765,0.092,2.91,0.092c1.081,0,2.165,0,3.311-0.092c0.124,1.857,0.897,3.466,1.703,5.137l3.403,7.15
		c0.251,0.526,1.053,2.074,1.455,2.785c0.496-0.897,0.897-1.764,1.611-3.218l2.91-5.942c0.989-2.042,1.98-3.869,2.506-5.912
		c0.837,0.062,1.857,0.092,2.538,0.092c1.3,0,2.383-0.03,3.251-0.092c0.339,0.123,0.4,0.712,0.092,0.897l-1.023,0.155
		c-1.358,0.217-1.669,0.712-1.669,2.352c0,4.582,0.06,9.162,0.276,13.743c0.093,2.074,0.436,2.259,1.425,2.414L416.781,48.703z"/>
	<path fill="#002B5F" d="M424.615,41.925c-0.806,0-0.773,0-1.053,0.836l-1.27,3.713c-0.619,1.826-0.494,1.888,0.651,2.073
		l0.897,0.155c0.215,0.217,0.185,0.773-0.063,0.897c-0.99-0.061-2.013-0.061-3.28-0.092c-1.022,0-1.98,0.031-3.063,0.092
		c-0.217-0.155-0.249-0.619-0.032-0.897l0.929-0.155c0.897-0.155,1.24-0.402,1.704-1.423c0.371-0.804,0.865-2.105,1.517-3.776
		l4.24-11.019c0.371-0.99,0.681-1.734,0.589-2.26c1.081-0.216,2.104-1.486,2.165-1.486c0.249,0,0.404,0.092,0.526,0.248
		c0.496,1.394,0.898,2.848,1.396,4.241l4.456,12.969c0.71,2.074,0.865,2.26,2.444,2.569l0.465,0.092
		c0.248,0.217,0.248,0.743,0.032,0.897c-1.271-0.061-2.415-0.092-4.024-0.092c-1.332,0-2.693,0.062-3.777,0.092
		c-0.248-0.155-0.276-0.712-0.092-0.897l0.681-0.092c1.115-0.155,1.269-0.341,0.805-1.64l-1.456-4.209
		c-0.277-0.836-0.401-0.836-1.267-0.836h-4.12V41.925z M428.33,40.532c0.866,0,0.99-0.062,0.741-0.805l-1.3-3.713
		c-0.557-1.642-0.711-2.229-0.866-2.446h-0.062c-0.125,0.217-0.402,0.99-0.93,2.446l-1.3,3.621c-0.31,0.897-0.248,0.897,0.494,0.897
		H428.33z"/>
	<path fill="#002B5F" d="M458.294,44.246c0,0.928,0,4.735,0.093,5.447c-0.248,0.341-0.681,0.465-1.053,0.434
		c-0.496-0.65-1.394-1.702-3.622-4.239l-7.242-8.264c-1.981-2.29-3.003-3.435-3.528-3.899c-0.092,0-0.092,0.341-0.092,1.981v6.036
		c0,2.321,0.028,5.169,0.556,6.097c0.279,0.464,0.806,0.681,1.579,0.774l0.682,0.092c0.277,0.217,0.248,0.804-0.063,0.897
		c-1.146-0.061-2.353-0.092-3.527-0.092c-1.3,0-2.136,0.031-3.221,0.092c-0.248-0.154-0.31-0.68-0.062-0.897l0.681-0.155
		c0.587-0.124,1.146-0.216,1.36-0.711c0.404-0.959,0.404-3.652,0.404-6.097v-7.335c0-2.414,0.028-2.91-1.024-3.807
		c-0.339-0.278-1.207-0.526-1.639-0.619l-0.464-0.092c-0.217-0.186-0.188-0.804,0.122-0.897c1.178,0.123,2.879,0.092,3.652,0.092
		c0.651,0,1.395-0.031,2.135-0.092c0.527,1.33,3.899,5.23,4.984,6.406l3.095,3.343c1.3,1.423,4.179,4.705,4.488,4.891
		c0.092-0.092,0.092-0.248,0.092-0.743v-6.038c0-2.321-0.03-5.169-0.586-6.097c-0.279-0.464-0.773-0.681-1.55-0.773l-0.711-0.092
		c-0.279-0.217-0.247-0.804,0.063-0.898c1.207,0.062,2.353,0.093,3.559,0.093c1.33,0,2.136-0.031,3.249-0.093
		c0.248,0.155,0.31,0.681,0.063,0.898l-0.71,0.154c-0.589,0.123-1.115,0.217-1.332,0.712c-0.433,0.96-0.433,3.652-0.433,6.097
		V44.246z"/>
	<path fill="#002B5F" d="M173.575,63.422c0-2.817-0.03-3.313-1.331-3.467l-1.083-0.123c-0.216-0.217-0.216-0.743,0.03-0.867
		c2.168-0.248,4.024-0.278,6.842-0.278c2.94,0,5.075,0.434,6.469,1.237c1.609,0.959,2.631,2.599,2.631,4.643
		c0,4.705-4.488,6.005-6.933,6.005c-0.279,0-0.526,0-0.774-0.031c-0.216-0.186-0.247-0.589-0.092-0.774
		c2.818-0.557,3.838-2.599,3.838-5.137c0-2.506-1.61-4.705-4.427-4.705c-1.545,0-1.578,0.093-1.578,1.301v13.525
		c0,3.28,0.278,3.374,1.732,3.529l1.145,0.124c0.186,0.217,0.156,0.774-0.062,0.897c-1.826-0.061-3.22-0.092-4.581-0.092
		s-2.755,0.031-3.993,0.092c-0.249-0.123-0.279-0.68-0.063-0.897l0.495-0.063c1.454-0.185,1.733-0.309,1.733-3.59L173.575,63.422
		L173.575,63.422z"/>
	<path fill="#002B5F" d="M192.211,71.625c-0.804,0-0.773,0-1.053,0.835l-1.269,3.714c-0.619,1.826-0.494,1.887,0.651,2.073
		l0.897,0.155c0.216,0.217,0.186,0.773-0.063,0.897c-0.99-0.061-2.012-0.061-3.281-0.092c-1.021,0-1.981,0.031-3.064,0.092
		c-0.215-0.154-0.247-0.619-0.029-0.897l0.928-0.155c0.898-0.155,1.239-0.402,1.703-1.423c0.371-0.804,0.867-2.105,1.517-3.776
		l4.24-11.019c0.372-0.99,0.681-1.734,0.587-2.259c1.083-0.217,2.105-1.486,2.167-1.486c0.248,0,0.403,0.092,0.526,0.248
		c0.495,1.394,0.898,2.848,1.394,4.24l4.457,12.969c0.711,2.074,0.866,2.26,2.445,2.568l0.464,0.092
		c0.248,0.217,0.248,0.743,0.031,0.897c-1.27-0.061-2.415-0.092-4.024-0.092c-1.331,0-2.692,0.061-3.776,0.092
		c-0.247-0.154-0.278-0.711-0.092-0.897l0.68-0.092c1.115-0.155,1.269-0.341,0.804-1.64l-1.454-4.21
		c-0.278-0.836-0.402-0.836-1.269-0.836h-4.118V71.625z M195.924,70.232c0.867,0,0.99-0.062,0.743-0.805l-1.3-3.714
		c-0.557-1.641-0.712-2.229-0.867-2.445h-0.061c-0.125,0.216-0.403,0.99-0.931,2.445l-1.3,3.621
		c-0.309,0.897-0.248,0.897,0.496,0.897H195.924z"/>
	<path fill="#002B5F" d="M212.456,74.101c0,1.547,0.063,2.662,0.526,3.188c0.372,0.434,0.866,0.681,3.343,0.681
		c3.436,0,3.931-0.155,5.354-3.343c0.31-0.155,0.805-0.063,0.959,0.185c-0.247,1.3-0.928,3.652-1.3,4.488
		c-1.301-0.061-3.963-0.092-7.428-0.092h-3.22c-1.579,0-3.126,0.031-4.426,0.092c-0.248-0.123-0.341-0.742-0.062-0.897l0.929-0.155
		c1.453-0.247,1.732-0.278,1.732-3.498V63.237c0-3.22-0.279-3.313-1.732-3.529l-0.867-0.124c-0.216-0.155-0.216-0.774,0.063-0.897
		c1.548,0.062,2.94,0.092,4.365,0.092c1.361,0,2.754-0.03,4.116-0.092c0.278,0.123,0.31,0.742,0.061,0.897l-0.68,0.124
		c-1.455,0.247-1.733,0.309-1.733,3.529L212.456,74.101L212.456,74.101z"/>
	<path fill="#002B5F" d="M229.792,74.101c0,1.547,0.062,2.662,0.527,3.188c0.372,0.434,0.865,0.681,3.342,0.681
		c3.436,0,3.931-0.155,5.354-3.343c0.309-0.155,0.805-0.063,0.959,0.185c-0.247,1.3-0.928,3.652-1.3,4.488
		c-1.301-0.061-3.962-0.092-7.428-0.092h-3.218c-1.58,0-3.127,0.031-4.427,0.092c-0.247-0.123-0.34-0.742-0.061-0.897l0.928-0.155
		c1.455-0.247,1.734-0.278,1.734-3.498V63.237c0-3.22-0.279-3.313-1.734-3.529l-0.867-0.124c-0.216-0.155-0.216-0.774,0.063-0.897
		c1.548,0.062,2.94,0.092,4.365,0.092c1.36,0,2.754-0.03,4.116-0.092c0.278,0.123,0.309,0.742,0.062,0.897l-0.681,0.124
		c-1.454,0.247-1.732,0.309-1.732,3.529L229.792,74.101L229.792,74.101z"/>
	<path fill="#002B5F" d="M246.663,71.625c-0.804,0-0.773,0-1.053,0.835l-1.269,3.714c-0.619,1.826-0.494,1.887,0.651,2.073
		l0.897,0.155c0.216,0.217,0.186,0.773-0.063,0.897c-0.99-0.061-2.012-0.061-3.281-0.092c-1.021,0-1.981,0.031-3.064,0.092
		c-0.215-0.154-0.247-0.619-0.029-0.897l0.928-0.155c0.898-0.155,1.239-0.402,1.703-1.423c0.371-0.804,0.867-2.105,1.517-3.776
		l4.24-11.019c0.372-0.99,0.681-1.734,0.587-2.259c1.083-0.217,2.105-1.486,2.167-1.486c0.248,0,0.403,0.092,0.526,0.248
		c0.495,1.394,0.898,2.848,1.394,4.24l4.457,12.969c0.711,2.074,0.866,2.26,2.445,2.568l0.465,0.092
		c0.247,0.217,0.247,0.743,0.03,0.897c-1.269-0.061-2.414-0.092-4.024-0.092c-1.331,0-2.692,0.061-3.776,0.092
		c-0.247-0.154-0.278-0.711-0.092-0.897l0.68-0.092c1.115-0.155,1.27-0.341,0.804-1.64l-1.454-4.21
		c-0.278-0.836-0.402-0.836-1.269-0.836h-4.118V71.625z M250.376,70.232c0.867,0,0.99-0.062,0.743-0.805l-1.3-3.714
		c-0.557-1.641-0.712-2.229-0.867-2.445h-0.061c-0.125,0.216-0.403,0.99-0.931,2.445l-1.3,3.621
		c-0.309,0.897-0.248,0.897,0.496,0.897H250.376z"/>
	<path fill="#002B5F" d="M263.32,63.422c0-2.972-0.031-3.405-1.487-3.529l-0.65-0.062c-0.217-0.155-0.217-0.711,0.03-0.867
		c2.228-0.185,4.703-0.278,7.737-0.278c2.941,0,5.045,0.248,7.305,1.053c3.715,1.361,6.346,4.643,6.346,9.254
		c0,3.435-1.703,6.963-5.541,8.915c-2.196,1.113-4.858,1.485-7.675,1.485c-1.889,0-3.344-0.186-4.488-0.186
		c-1.177,0-2.569,0.031-3.931,0.092c-0.249-0.124-0.278-0.68-0.063-0.897l0.681-0.093c1.453-0.186,1.734-0.278,1.734-3.559
		L263.32,63.422L263.32,63.422z M266.908,73.543c0,3.002,0.217,4.611,3.498,4.611c5.508,0,7.984-3.899,7.984-9.131
		c0-6.128-3.558-9.099-8.729-9.099c-1.299,0-2.29,0.248-2.507,0.434c-0.215,0.186-0.247,0.836-0.247,2.292V73.543z"/>
	<path fill="#002B5F" d="M291.177,74.751c0,3.28,0.279,3.374,1.734,3.559l0.681,0.093c0.217,0.217,0.185,0.773-0.063,0.897
		c-1.362-0.061-2.754-0.092-4.116-0.092s-2.817,0.031-4.179,0.092c-0.248-0.124-0.277-0.68-0.063-0.897l0.682-0.093
		c1.454-0.186,1.733-0.278,1.733-3.559V63.237c0-3.282-0.279-3.374-1.733-3.56l-0.682-0.092c-0.214-0.216-0.185-0.774,0.063-0.897
		c1.361,0.062,2.754,0.092,4.179,0.092c1.362,0,2.754-0.03,4.116-0.092c0.247,0.123,0.279,0.681,0.063,0.897l-0.681,0.092
		c-1.455,0.185-1.734,0.278-1.734,3.56V74.751z"/>
	<path fill="#002B5F" d="M315.57,73.946c0,0.928,0,4.735,0.093,5.447c-0.249,0.342-0.682,0.464-1.053,0.434
		c-0.494-0.65-1.394-1.702-3.62-4.24l-7.243-8.264c-1.981-2.291-3.003-3.436-3.527-3.899c-0.095,0-0.095,0.34-0.095,1.981v6.035
		c0,2.321,0.031,5.169,0.559,6.098c0.277,0.464,0.803,0.68,1.577,0.774l0.681,0.092c0.279,0.217,0.25,0.804-0.062,0.897
		c-1.146-0.061-2.352-0.092-3.528-0.092c-1.301,0-2.136,0.031-3.22,0.092c-0.247-0.154-0.308-0.68-0.062-0.897l0.681-0.155
		c0.589-0.124,1.146-0.216,1.362-0.711c0.4-0.959,0.4-3.652,0.4-6.098v-7.334c0-2.415,0.032-2.91-1.021-3.807
		c-0.342-0.278-1.207-0.526-1.642-0.619l-0.464-0.093c-0.217-0.186-0.185-0.804,0.125-0.897c1.175,0.123,2.879,0.092,3.652,0.092
		c0.648,0,1.392-0.03,2.134-0.092c0.528,1.33,3.899,5.23,4.982,6.406l3.095,3.343c1.301,1.423,4.18,4.705,4.488,4.891
		c0.093-0.092,0.093-0.248,0.093-0.743v-6.038c0-2.321-0.029-5.169-0.589-6.098c-0.277-0.464-0.772-0.681-1.546-0.773l-0.711-0.092
		c-0.279-0.216-0.249-0.804,0.062-0.897c1.207,0.062,2.353,0.092,3.559,0.092c1.332,0,2.136-0.03,3.25-0.092
		c0.249,0.155,0.31,0.681,0.063,0.897l-0.71,0.154c-0.589,0.123-1.112,0.216-1.33,0.711c-0.434,0.96-0.434,3.652-0.434,6.098V73.946
		z"/>
	<path fill="#002B5F" d="M342.223,69.055c0,6.097-4.643,10.647-10.895,10.647c-6.994,0-11.02-4.922-11.02-10.43
		c0-6.314,4.581-10.987,11.082-10.987C338.54,58.285,342.223,63.422,342.223,69.055z M324.52,68.375
		c0,4.271,1.826,10.09,7.118,10.09c3.527,0,6.376-2.631,6.376-8.852c0-4.674-2.105-10.091-7.027-10.091
		C327.892,59.522,324.52,61.782,324.52,68.375z"/>
	<path fill="#002B5F" d="M385.605,59.708c-1.423,0.309-1.89,0.96-3.035,3.498c-2.351,5.23-4.363,9.471-6.098,13.804
		c-0.464,1.146-0.71,1.981-0.989,2.568c-0.092,0.062-0.309,0.124-0.525,0.124c-0.216,0-0.434-0.031-0.559-0.124
		c-0.648-1.919-2.6-5.912-3.837-8.573c-1.392,2.817-2.754,5.665-3.931,8.573c-0.092,0.062-0.309,0.124-0.527,0.124
		c-0.218,0-0.432-0.031-0.557-0.124c-0.494-1.393-1.27-3.064-2.165-4.952l-5.976-12.659c-0.649-1.393-0.959-1.888-2.228-2.198
		l-0.865-0.217c-0.218-0.186-0.188-0.711,0.092-0.867c1.113,0.062,2.413,0.092,3.745,0.092c1.115,0,2.29-0.031,3.774-0.092
		c0.249,0.155,0.279,0.681,0.095,0.867l-0.773,0.186c-0.404,0.092-0.712,0.216-0.712,0.495s0.216,0.898,0.743,2.074l3.683,7.985
		c1.085,2.353,1.858,3.962,2.168,4.458c0.649-1.238,1.33-2.693,2.074-4.302c0.216-0.464,0.434-0.99,0.434-1.176
		c0-0.155-0.095-0.526-0.279-0.929l-3.251-6.872c-0.586-1.237-0.958-1.547-1.794-1.733l-0.897-0.186
		c-0.216-0.217-0.185-0.711,0.092-0.867c1.271,0.062,2.291,0.092,3.344,0.092c1.237,0,2.445-0.031,3.684-0.092
		c0.249,0.123,0.279,0.68,0.062,0.867l-0.835,0.186c-0.341,0.061-0.528,0.216-0.528,0.433c0,0.185,0.063,0.526,0.279,1.021
		c0.682,1.548,1.394,3.126,2.105,4.519c0.528-1.052,1.022-2.197,1.519-3.343c0.464-1.083,0.678-1.857,0.678-2.135
		c0-0.217-0.185-0.372-0.619-0.464l-0.865-0.216c-0.218-0.248-0.155-0.743,0.092-0.867c0.836,0.062,1.704,0.092,2.879,0.092
		c1.082,0,1.826-0.031,2.816-0.092c0.31,0.155,0.31,0.711,0.063,0.897l-0.773,0.155c-1.145,0.216-1.454,0.588-2.445,2.414
		c-0.681,1.238-1.456,2.91-2.137,4.302c-0.156,0.341-0.31,0.774-0.31,0.867c0,0.092,0.095,0.372,0.249,0.742l1.331,2.879
		c0.651,1.392,1.453,3.28,1.732,3.807c1.58-3.683,3.251-7.77,4.891-11.7c0.527-1.269,0.96-2.476,0.96-2.878
		c0-0.217-0.559-0.31-1.053-0.464l-0.527-0.155c-0.279-0.217-0.279-0.711,0.03-0.867c1.145,0.062,2.105,0.092,3.158,0.092
		s2.011-0.031,2.971-0.092c0.247,0.155,0.31,0.588,0.093,0.867L385.605,59.708z"/>
	<path fill="#002B5F" d="M388.55,63.237c0-3.282-0.279-3.405-1.734-3.59l-0.494-0.062c-0.216-0.216-0.187-0.774,0.063-0.897
		c1.175,0.062,2.63,0.092,3.992,0.092h5.912c1.981,0,3.775-0.03,4.179-0.092c0.123,0.526,0.31,2.971,0.494,4.302
		c-0.124,0.249-0.744,0.31-0.99,0.124c-0.494-1.795-0.96-2.538-1.949-2.817c-0.712-0.186-1.64-0.278-2.476-0.278h-2.074
		c-1.332,0-1.332,0.063-1.332,1.826v5.23c0,0.804,0.032,0.835,0.743,0.835h1.486c2.693,0,3.158-0.03,3.438-1.361l0.215-1.053
		c0.249-0.217,0.835-0.217,0.989,0.03c-0.03,0.836-0.093,1.949-0.093,3.095c0,1.176,0.063,2.259,0.093,3.25
		c-0.155,0.217-0.741,0.217-0.989,0.031l-0.215-1.238c-0.218-1.3-0.744-1.362-3.438-1.362h-1.486c-0.71,0-0.743,0.062-0.743,0.836
		v3.93c0,1.579,0.063,2.693,0.527,3.219c0.372,0.434,0.897,0.65,3.498,0.681c3.932,0.031,4.612-0.836,5.695-3.343
		c0.277-0.217,0.804-0.125,0.99,0.185c-0.187,1.3-0.868,3.652-1.3,4.488c-1.362-0.061-4.023-0.092-7.646-0.092h-3.527
		c-1.362,0-3.251,0.031-4.644,0.092c-0.247-0.123-0.279-0.68-0.063-0.897l1.145-0.124c1.455-0.155,1.734-0.248,1.734-3.529
		L388.55,63.237L388.55,63.237z"/>
	<path fill="#002B5F" d="M410.094,74.751c0,3.28,0.279,3.374,1.734,3.559l0.681,0.093c0.216,0.217,0.185,0.773-0.063,0.897
		c-1.362-0.061-2.754-0.092-4.116-0.092c-1.361,0-2.816,0.031-4.179,0.092c-0.247-0.124-0.277-0.68-0.063-0.897l0.682-0.093
		c1.453-0.186,1.732-0.278,1.732-3.559V63.237c0-3.282-0.279-3.374-1.732-3.56l-0.682-0.092c-0.215-0.216-0.185-0.774,0.063-0.897
		c1.362,0.062,2.754,0.092,4.179,0.092c1.362,0,2.754-0.03,4.116-0.092c0.248,0.123,0.279,0.681,0.063,0.897l-0.681,0.092
		c-1.455,0.185-1.734,0.278-1.734,3.56V74.751z"/>
	<path fill="#002B5F" d="M434.486,73.946c0,0.928,0,4.735,0.093,5.447c-0.247,0.342-0.682,0.464-1.053,0.434
		c-0.493-0.65-1.393-1.702-3.62-4.24l-7.243-8.264c-1.98-2.291-3.002-3.436-3.527-3.899c-0.095,0-0.095,0.34-0.095,1.981v6.035
		c0,2.321,0.032,5.169,0.559,6.098c0.278,0.464,0.804,0.68,1.578,0.774l0.681,0.092c0.279,0.217,0.25,0.804-0.063,0.897
		c-1.146-0.061-2.351-0.092-3.528-0.092c-1.3,0-2.135,0.031-3.218,0.092c-0.247-0.154-0.31-0.68-0.063-0.897l0.68-0.155
		c0.589-0.124,1.146-0.216,1.362-0.711c0.401-0.959,0.401-3.652,0.401-6.098v-7.334c0-2.415,0.032-2.91-1.021-3.807
		c-0.343-0.278-1.208-0.526-1.642-0.619l-0.464-0.093c-0.217-0.186-0.185-0.804,0.124-0.897c1.175,0.123,2.879,0.092,3.652,0.092
		c0.648,0,1.392-0.03,2.136-0.092c0.526,1.33,3.899,5.23,4.981,6.406l3.095,3.343c1.302,1.423,4.179,4.705,4.488,4.891
		c0.093-0.092,0.093-0.248,0.093-0.743v-6.038c0-2.321-0.03-5.169-0.589-6.098c-0.277-0.464-0.773-0.681-1.546-0.773l-0.711-0.092
		c-0.279-0.216-0.249-0.804,0.061-0.897c1.208,0.062,2.354,0.092,3.56,0.092c1.332,0,2.136-0.03,3.251-0.092
		c0.247,0.155,0.309,0.681,0.062,0.897l-0.712,0.155c-0.589,0.123-1.114,0.216-1.33,0.712c-0.435,0.96-0.435,3.651-0.435,6.097
		v7.396H434.486z"/>
	<path fill="#002B5F" d="M446.777,61.379c0-1.3-0.029-1.361-0.836-1.361h-1.731c-2.849,0-3.685,0.341-4.829,2.848
		c-0.215,0.186-0.866,0.092-0.991-0.216c0.527-1.672,0.991-3.591,1.209-4.674c0.063-0.092,0.187-0.124,0.342-0.124
		c0.122,0,0.248,0.031,0.309,0.124c0.155,0.775,0.587,0.805,2.692,0.805h12.628c1.517,0,1.98-0.092,2.354-0.805
		c0.121-0.062,0.247-0.124,0.371-0.124c0.185,0,0.34,0.062,0.401,0.155c-0.309,1.27-0.557,3.931-0.465,4.922
		c-0.154,0.248-0.681,0.31-0.96,0.092c-0.4-2.415-0.989-3.002-4.3-3.002h-1.766c-0.806,0-0.835,0.063-0.835,1.361v13.371
		c0,3.28,0.276,3.374,1.731,3.529l1.115,0.124c0.217,0.217,0.185,0.774-0.063,0.897c-1.795-0.061-3.188-0.092-4.552-0.092
		c-1.358,0-2.816,0.031-4.796,0.092c-0.249-0.123-0.277-0.742-0.062-0.897l1.301-0.155c1.453-0.186,1.731-0.216,1.731-3.498V61.379
		L446.777,61.379z"/>
	<path fill="#002B5F" d="M462.72,63.422c0-2.972-0.028-3.343-1.484-3.498l-0.806-0.092c-0.216-0.217-0.216-0.711,0.03-0.867
		c1.951-0.185,4.583-0.278,7.12-0.278c2.415,0,4.518,0.309,5.881,1.053c1.579,0.836,2.725,2.29,2.725,4.519
		c0,2.848-2.198,4.271-3.715,4.891c-0.185,0.092-0.125,0.34,0,0.526c2.478,4.178,4.024,6.81,5.479,8.016
		c0.865,0.743,1.764,0.929,2.135,0.96c0.154,0.124,0.154,0.464,0.063,0.62c-0.372,0.092-0.96,0.185-2.043,0.185
		c-2.971,0-4.58-1.206-6.469-4.085c-0.836-1.3-1.701-3.001-2.445-4.208c-0.557-0.928-0.897-1.053-1.918-1.053
		c-0.929,0-0.96,0.031-0.96,0.681v3.962c0,3.28,0.279,3.374,1.732,3.56l0.681,0.092c0.218,0.217,0.186,0.774-0.062,0.898
		c-1.362-0.062-2.755-0.093-4.117-0.093c-1.361,0-2.754,0.031-4.179,0.093c-0.247-0.124-0.339-0.681-0.062-0.898l0.68-0.092
		c1.454-0.186,1.733-0.278,1.733-3.56L462.72,63.422L462.72,63.422z M466.311,67.879c0,0.99,0,1.053,1.486,1.053
		c3.033,0,4.426-1.486,4.426-4.425c0-2.445-1.58-4.58-4.272-4.58c-1.609,0-1.64,0.092-1.64,1.516V67.879z"/>
	<path fill="#002B5F" d="M501.444,69.055c0,6.097-4.643,10.647-10.895,10.647c-6.994,0-11.02-4.922-11.02-10.43
		c0-6.314,4.581-10.987,11.082-10.987C497.761,58.285,501.444,63.422,501.444,69.055z M483.74,68.375
		c0,4.271,1.826,10.09,7.118,10.09c3.527,0,6.376-2.631,6.376-8.852c0-4.674-2.105-10.091-7.027-10.091
		C487.114,59.522,483.74,61.782,483.74,68.375z"/>
	<path fill="#002B5F" d="M506.43,63.422c0-2.972-0.029-3.343-1.484-3.498l-0.806-0.092c-0.217-0.217-0.217-0.711,0.03-0.867
		c1.395-0.123,3.651-0.278,7.058-0.278c2.599,0,4.673,0.248,6.067,1.053c1.422,0.836,2.165,2.073,2.165,4.023
		c0,1.826-1.329,3.219-3.497,3.932c-0.123,0.031-0.185,0.123-0.185,0.185c0,0.062,0.062,0.125,0.247,0.186
		c2.354,0.371,4.981,1.888,4.981,5.386c0,1.423-0.464,2.971-1.886,4.116c-1.455,1.207-3.498,1.733-7.027,1.733
		c-1.36,0-2.66-0.092-3.838-0.092c-1.361,0-2.817,0.031-4.179,0.092c-0.248-0.123-0.276-0.68-0.063-0.897l0.682-0.092
		c1.454-0.186,1.733-0.278,1.733-3.56L506.43,63.422L506.43,63.422z M510.021,66.826c0,0.804,0.092,0.836,1.332,0.836
		c2.909,0,4.239-1.145,4.239-3.93c0-2.725-2.011-3.807-3.93-3.807c-1.549,0-1.641,0.062-1.641,1.301L510.021,66.826L510.021,66.826z
		 M510.021,74.101c0,2.816,0.309,3.961,3.003,3.961c2.135,0,4.022-1.392,4.022-4.148c0-3.188-2.167-5.075-5.603-5.075
		c-1.361,0-1.425,0.185-1.425,0.804v4.458H510.021z"/>
	<path fill="#002B5F" d="M183.945,93.091c0,2.322-1.857,3.063-2.911,3.685c2.383,1.547,3.56,2.971,5.201,5.509
		c0.989-1.332,2.073-3.435,2.971-5.416c0.526-1.177,0.65-1.487-0.217-1.642l-0.897-0.154c-0.279-0.278-0.217-0.743,0.092-0.866
		h1.703c1.579,0,4.488-0.125,5.2-0.187c0.217,0.124,0.311,0.619,0.063,0.867l-1.423,0.31c-1.61,0.34-2.26,1.237-3.312,3.032
		c-0.743,1.239-1.857,2.91-3.219,4.859c-0.186,0.279-0.156,0.559,0.062,0.897c1.3,2.044,2.723,3.313,4.921,3.313
		c0.867,0,1.857-0.372,2.507-0.836c0.31,0.03,0.528,0.34,0.434,0.648c-1.518,1.642-3.745,2.229-5.293,2.229
		c-1.455,0-3.033-0.402-3.622-0.989c-0.433-0.434-1.083-1.394-1.485-2.042c-2.042,2.073-4.023,3.033-6.407,3.033
		c-4.457,0-6.253-3.064-6.253-5.54c0-3.219,2.414-5.045,4.736-6.253c-0.464-0.403-2.168-1.642-2.168-3.807
		c0-2.787,2.261-4.643,4.83-4.643C182.21,89.1,183.945,90.955,183.945,93.091z M177.877,98.385c-0.155,0-0.465,0.185-0.711,0.369
		c-1.053,0.744-1.889,2.323-1.889,3.87c0,2.601,2.167,4.426,4.86,4.426c1.361,0,2.631-0.557,3.59-1.423
		c0.464-0.402,0.464-0.589,0.094-1.177c-0.744-1.176-1.61-2.353-2.507-3.344C179.859,99.498,178.033,98.385,177.877,98.385z
		 M177.351,92.597c0,1.3,0.742,2.229,2.104,3.219c0.186,0.123,0.433,0.279,0.495,0.279c0.092,0,0.248-0.124,0.308-0.156
		c0.589-0.649,1.023-1.671,1.023-2.97c0-1.609-0.773-2.757-1.95-2.757C178.248,90.212,177.351,91.173,177.351,92.597z"/>
	<path fill="#002B5F" d="M206.977,93.122c0-2.972-0.03-3.342-1.486-3.496l-0.805-0.095c-0.216-0.217-0.216-0.711,0.03-0.866
		c1.393-0.123,3.652-0.279,7.058-0.279c2.6,0,4.673,0.249,6.066,1.053c1.423,0.836,2.168,2.073,2.168,4.023
		c0,1.826-1.331,3.219-3.499,3.932c-0.123,0.028-0.186,0.121-0.186,0.185s0.063,0.123,0.249,0.186
		c2.352,0.371,4.981,1.888,4.981,5.387c0,1.424-0.464,2.971-1.888,4.116c-1.454,1.207-3.498,1.732-7.026,1.732
		c-1.361,0-2.661-0.093-3.837-0.093c-1.362,0-2.817,0.03-4.179,0.093c-0.25-0.123-0.278-0.68-0.063-0.896l0.68-0.093
		c1.455-0.187,1.734-0.279,1.734-3.56L206.977,93.122L206.977,93.122z M210.568,96.526c0,0.806,0.093,0.836,1.331,0.836
		c2.909,0,4.239-1.146,4.239-3.93c0-2.725-2.012-3.807-3.93-3.807c-1.547,0-1.64,0.062-1.64,1.301V96.526z M210.568,103.801
		c0,2.816,0.309,3.962,3.001,3.962c2.136,0,4.023-1.394,4.023-4.148c0-3.187-2.167-5.074-5.602-5.074
		c-1.361,0-1.423,0.186-1.423,0.803L210.568,103.801L210.568,103.801z"/>
	<path fill="#002B5F" d="M226.388,92.937c0-3.281-0.279-3.405-1.734-3.59l-0.495-0.063c-0.216-0.218-0.186-0.773,0.063-0.897
		c1.175,0.063,2.63,0.095,3.993,0.095h5.912c1.98,0,3.776-0.032,4.177-0.095c0.124,0.526,0.311,2.972,0.497,4.304
		c-0.125,0.247-0.745,0.308-0.991,0.122c-0.496-1.795-0.96-2.539-1.951-2.816c-0.71-0.187-1.639-0.279-2.476-0.279h-2.073
		c-1.331,0-1.331,0.063-1.331,1.826v5.231c0,0.804,0.031,0.836,0.743,0.836h1.486c2.693,0,3.157-0.031,3.437-1.362l0.215-1.052
		c0.25-0.217,0.837-0.217,0.991,0.029c-0.03,0.837-0.093,1.95-0.093,3.096c0,1.175,0.063,2.26,0.093,3.249
		c-0.155,0.217-0.743,0.217-0.991,0.031l-0.215-1.237c-0.217-1.302-0.743-1.362-3.437-1.362h-1.486c-0.71,0-0.743,0.063-0.743,0.836
		v3.93c0,1.579,0.063,2.694,0.528,3.22c0.372,0.434,0.896,0.649,3.498,0.681c3.931,0.031,4.611-0.836,5.694-3.342
		c0.278-0.217,0.805-0.125,0.99,0.185c-0.186,1.3-0.867,3.652-1.301,4.488c-1.361-0.063-4.023-0.093-7.644-0.093h-3.528
		c-1.362,0-3.25,0.03-4.644,0.093c-0.249-0.125-0.279-0.681-0.063-0.898l1.145-0.122c1.455-0.154,1.734-0.249,1.734-3.529
		L226.388,92.937L226.388,92.937z"/>
	<path fill="#002B5F" d="M247.931,103.801c0,1.547,0.062,2.662,0.526,3.187c0.372,0.434,0.866,0.681,3.343,0.681
		c3.436,0,3.931-0.154,5.354-3.342c0.31-0.155,0.805-0.063,0.959,0.185c-0.247,1.301-0.928,3.652-1.3,4.488
		c-1.301-0.063-3.963-0.093-7.428-0.093h-3.22c-1.579,0-3.126,0.03-4.426,0.093c-0.248-0.123-0.341-0.743-0.062-0.896l0.929-0.156
		c1.453-0.247,1.732-0.278,1.732-3.498V92.937c0-3.219-0.279-3.311-1.732-3.528l-0.867-0.124c-0.216-0.155-0.216-0.773,0.063-0.896
		c1.548,0.062,2.94,0.093,4.364,0.093c1.361,0,2.754-0.031,4.117-0.093c0.278,0.123,0.309,0.741,0.061,0.896l-0.68,0.124
		c-1.455,0.247-1.733,0.31-1.733,3.528L247.931,103.801L247.931,103.801z"/>
	<path fill="#002B5F" d="M265.267,103.801c0,1.547,0.063,2.662,0.528,3.187c0.371,0.434,0.864,0.681,3.342,0.681
		c3.435,0,3.93-0.154,5.354-3.342c0.31-0.155,0.805-0.063,0.959,0.185c-0.247,1.301-0.928,3.652-1.3,4.488
		c-1.301-0.063-3.963-0.093-7.429-0.093h-3.218c-1.58,0-3.127,0.03-4.427,0.093c-0.247-0.123-0.341-0.743-0.062-0.896l0.928-0.156
		c1.455-0.247,1.734-0.278,1.734-3.498V92.937c0-3.219-0.279-3.311-1.734-3.528l-0.867-0.124c-0.216-0.155-0.216-0.773,0.062-0.896
		c1.548,0.062,2.941,0.093,4.366,0.093c1.359,0,2.754-0.031,4.115-0.093c0.278,0.123,0.31,0.741,0.063,0.896L267,89.408
		c-1.454,0.247-1.732,0.31-1.732,3.528L265.267,103.801L265.267,103.801z"/>
</g>
<g>
	<path fill="#002B5F" d="M29.495,77.278h5.897V49.491h5.896v63.201h-5.896v-29.07h-5.897v29.071h-5.897V49.491h5.897V77.278z"/>
	<path fill="#002B5F" d="M56.861,59.466c0-2.47-0.839-3.705-2.518-3.705c-1.68,0-2.518,1.236-2.518,3.705v8.55
		c0,2.755,1.812,6.722,5.434,11.898c3.667,5.083,5.5,9.523,5.5,13.324v5.558c0,9.263-2.795,13.896-8.382,13.896
		c-5.633,0-8.45-4.633-8.45-13.896V90.96h5.897v11.757c0,2.422,0.838,3.635,2.518,3.635c1.679,0,2.518-1.213,2.518-3.639v-7.277
		c0-3.805-1.834-8.252-5.5-13.34c-3.623-5.042-5.434-9.941-5.434-14.696v-4.065c0-9.274,2.817-13.912,8.45-13.912
		c5.588,0,8.382,4.655,8.382,13.965v5.772h-5.897V59.466L56.861,59.466z"/>
	<path fill="#002B5F" d="M73.295,112.691h-5.897V49.418h9.11c6.516,0,9.774,4.857,9.774,14.568v2.5
		c0,9.713-3.242,14.567-9.724,14.567h-3.263V112.691z M76.541,74.713c2.562,0,3.844-1.42,3.844-4.259V60.021
		c0-2.839-1.303-4.26-3.909-4.26h-3.181v18.953H76.541z"/>
	<path fill="#002B5F" d="M123.654,49.491l-7.686,63.201h-5.434l-4.838-40.33l-4.704,40.33h-5.433L87.74,49.491h5.963l3.909,34.059
		l0.927,11.185l0.861-11.113l3.909-34.13h4.771l3.909,34.059l0.927,11.185l0.927-11.113l3.844-34.13H123.654z"/>
	<path fill="#002B5F" d="M143.665,69.702c0,5.713-1.415,9.307-4.241,10.783c2.827,1.473,4.241,5.034,4.241,10.688v7.624
		c0,9.263-2.938,13.896-8.813,13.896h-8.88V49.42h8.88c5.874,0,8.813,4.642,8.813,13.926V69.702z M137.768,59.466
		c0-2.47-0.972-3.705-2.914-3.705h-2.982V77.28h3.047c1.899,0,2.849-1.212,2.849-3.634V59.466z M137.768,87.254
		c0-1.139-0.232-2.03-0.695-2.673c-0.464-0.641-1.183-0.96-2.154-0.96h-3.047v22.728h2.982c1.943,0,2.914-1.213,2.914-3.634V87.254z
		"/>
</g>
</svg>
